# xmcd
#
# Track frame offsets:
#	150
#	18216
#	36558
#	53964
#	74021
#	90185
#	110287
#	129640
#	147802
#	168666
#	188370
#
# Disc length: 2763 seconds
# Revision: 0
# Processed by: cddbd v1.5.2PL0 Copyright (c) Steve Scherf et al.
# Submitted via: dBpowerAMP V12.0
#
DISCID=920ac90b
DTITLE=Steve Grace - Follow
DYEAR=2007
DGENRE=Country
TTITLE0=How Great
TTITLE1=Follow
TTITLE2=Reign Over Me
TTITLE3=Vision For The World
TTITLE4=Days OF My Life
TTITLE5=Freeway Dreaming
TTITLE6=Glory Trian
TTITLE7=Draw Me Near
TTITLE8=Christmas in Kosovo
TTITLE9=God in this Town
TTITLE10=This is the Time
EXTD=
EXTT0=
EXTT1=
EXTT2=
EXTT3=
EXTT4=
EXTT5=
EXTT6=
EXTT7=
EXTT8=
EXTT9=
EXTT10=
PLAYORDER=
